<mxfile host="app.diagrams.net" modified="2024-03-06T23:42:42.130Z" agent="Mozilla/5.0 (Windows NT 10.0; Win64; x64) AppleWebKit/537.36 (KHTML, like Gecko) Chrome/122.0.0.0 Safari/537.36" etag="rUBJ1Kk26lwcZC3EFW0q" version="24.0.2" type="device">
  <diagram name="Page-1" id="e7e014a7-5840-1c2e-5031-d8a46d1fe8dd">
    <mxGraphModel dx="1674" dy="746" grid="1" gridSize="10" guides="1" tooltips="1" connect="1" arrows="1" fold="1" page="1" pageScale="1" pageWidth="1169" pageHeight="826" background="none" math="0" shadow="0">
      <root>
        <mxCell id="0" />
        <mxCell id="1" parent="0" />
        <mxCell id="x729ZxXL85oCNlhEFiC4-9" value="" style="edgeStyle=orthogonalEdgeStyle;rounded=0;orthogonalLoop=1;jettySize=auto;html=1;" parent="1" source="x729ZxXL85oCNlhEFiC4-2" target="x729ZxXL85oCNlhEFiC4-8" edge="1">
          <mxGeometry relative="1" as="geometry" />
        </mxCell>
        <mxCell id="x729ZxXL85oCNlhEFiC4-2" value="Sistema de Cadastro" style="rounded=1;whiteSpace=wrap;html=1;" parent="1" vertex="1">
          <mxGeometry x="365" y="50" width="420" height="80" as="geometry" />
        </mxCell>
        <mxCell id="x729ZxXL85oCNlhEFiC4-21" value="" style="edgeStyle=orthogonalEdgeStyle;rounded=0;orthogonalLoop=1;jettySize=auto;html=1;" parent="1" source="x729ZxXL85oCNlhEFiC4-3" target="x729ZxXL85oCNlhEFiC4-8" edge="1">
          <mxGeometry relative="1" as="geometry" />
        </mxCell>
        <mxCell id="x729ZxXL85oCNlhEFiC4-3" value="Usuário" style="shape=umlActor;verticalLabelPosition=bottom;verticalAlign=top;html=1;outlineConnect=0;shadow=0;textShadow=0;" parent="1" vertex="1">
          <mxGeometry x="135" y="190" width="30" height="60" as="geometry" />
        </mxCell>
        <mxCell id="x729ZxXL85oCNlhEFiC4-11" value="" style="edgeStyle=orthogonalEdgeStyle;rounded=0;orthogonalLoop=1;jettySize=auto;html=1;" parent="1" source="x729ZxXL85oCNlhEFiC4-8" target="x729ZxXL85oCNlhEFiC4-10" edge="1">
          <mxGeometry relative="1" as="geometry" />
        </mxCell>
        <mxCell id="x729ZxXL85oCNlhEFiC4-14" style="edgeStyle=orthogonalEdgeStyle;rounded=0;orthogonalLoop=1;jettySize=auto;html=1;exitX=0.75;exitY=1;exitDx=0;exitDy=0;entryX=0;entryY=0.5;entryDx=0;entryDy=0;" parent="1" source="x729ZxXL85oCNlhEFiC4-8" target="x729ZxXL85oCNlhEFiC4-13" edge="1">
          <mxGeometry relative="1" as="geometry" />
        </mxCell>
        <mxCell id="x729ZxXL85oCNlhEFiC4-8" value="Tela de Login" style="rounded=1;whiteSpace=wrap;html=1;" parent="1" vertex="1">
          <mxGeometry x="265" y="180" width="210" height="80" as="geometry" />
        </mxCell>
        <mxCell id="x729ZxXL85oCNlhEFiC4-19" style="edgeStyle=orthogonalEdgeStyle;rounded=0;orthogonalLoop=1;jettySize=auto;html=1;exitX=1;exitY=0.5;exitDx=0;exitDy=0;entryX=0;entryY=0.5;entryDx=0;entryDy=0;" parent="1" source="x729ZxXL85oCNlhEFiC4-10" target="x729ZxXL85oCNlhEFiC4-17" edge="1">
          <mxGeometry relative="1" as="geometry" />
        </mxCell>
        <mxCell id="x729ZxXL85oCNlhEFiC4-10" value="Autentica o usuário" style="rounded=1;whiteSpace=wrap;html=1;" parent="1" vertex="1">
          <mxGeometry x="515" y="170" width="120" height="60" as="geometry" />
        </mxCell>
        <mxCell id="x729ZxXL85oCNlhEFiC4-13" value="Login errado, retorna mensagem de erro" style="rounded=1;whiteSpace=wrap;html=1;" parent="1" vertex="1">
          <mxGeometry x="515" y="270" width="120" height="60" as="geometry" />
        </mxCell>
        <mxCell id="x729ZxXL85oCNlhEFiC4-23" value="" style="edgeStyle=orthogonalEdgeStyle;rounded=0;orthogonalLoop=1;jettySize=auto;html=1;" parent="1" source="x729ZxXL85oCNlhEFiC4-17" target="x729ZxXL85oCNlhEFiC4-22" edge="1">
          <mxGeometry relative="1" as="geometry" />
        </mxCell>
        <mxCell id="x729ZxXL85oCNlhEFiC4-17" value="Tela de confirmação de LOGIN" style="rounded=1;whiteSpace=wrap;html=1;" parent="1" vertex="1">
          <mxGeometry x="735" y="180" width="210" height="80" as="geometry" />
        </mxCell>
        <mxCell id="x729ZxXL85oCNlhEFiC4-25" value="" style="edgeStyle=orthogonalEdgeStyle;rounded=0;orthogonalLoop=1;jettySize=auto;html=1;" parent="1" source="x729ZxXL85oCNlhEFiC4-22" target="x729ZxXL85oCNlhEFiC4-24" edge="1">
          <mxGeometry relative="1" as="geometry" />
        </mxCell>
        <mxCell id="x729ZxXL85oCNlhEFiC4-22" value="Ao fechar a tela ira para a proxima" style="whiteSpace=wrap;html=1;rounded=1;" parent="1" vertex="1">
          <mxGeometry x="777.5" y="290" width="125" height="30" as="geometry" />
        </mxCell>
        <mxCell id="x729ZxXL85oCNlhEFiC4-24" value="Tela de Cadastro" style="rounded=1;whiteSpace=wrap;html=1;" parent="1" vertex="1">
          <mxGeometry x="165" y="370" width="870" height="60" as="geometry" />
        </mxCell>
        <mxCell id="x729ZxXL85oCNlhEFiC4-40" style="edgeStyle=orthogonalEdgeStyle;rounded=0;orthogonalLoop=1;jettySize=auto;html=1;exitX=0.5;exitY=1;exitDx=0;exitDy=0;entryX=0.5;entryY=0;entryDx=0;entryDy=0;" parent="1" source="x729ZxXL85oCNlhEFiC4-26" target="x729ZxXL85oCNlhEFiC4-30" edge="1">
          <mxGeometry relative="1" as="geometry" />
        </mxCell>
        <mxCell id="x729ZxXL85oCNlhEFiC4-26" value="Criar Cadastro" style="rounded=1;whiteSpace=wrap;html=1;" parent="1" vertex="1">
          <mxGeometry x="165" y="470" width="180" height="60" as="geometry" />
        </mxCell>
        <mxCell id="x729ZxXL85oCNlhEFiC4-43" style="edgeStyle=orthogonalEdgeStyle;rounded=0;orthogonalLoop=1;jettySize=auto;html=1;exitX=0.5;exitY=1;exitDx=0;exitDy=0;entryX=0.5;entryY=0;entryDx=0;entryDy=0;" parent="1" source="x729ZxXL85oCNlhEFiC4-27" target="x729ZxXL85oCNlhEFiC4-41" edge="1">
          <mxGeometry relative="1" as="geometry" />
        </mxCell>
        <mxCell id="x729ZxXL85oCNlhEFiC4-27" value="Ler Cadastro" style="rounded=1;whiteSpace=wrap;html=1;" parent="1" vertex="1">
          <mxGeometry x="400" y="470" width="180" height="60" as="geometry" />
        </mxCell>
        <mxCell id="CERmEd8iWAx46a_hkjbx-3" style="edgeStyle=orthogonalEdgeStyle;rounded=0;orthogonalLoop=1;jettySize=auto;html=1;exitX=0.5;exitY=1;exitDx=0;exitDy=0;entryX=0.5;entryY=0;entryDx=0;entryDy=0;" edge="1" parent="1" source="x729ZxXL85oCNlhEFiC4-28" target="CERmEd8iWAx46a_hkjbx-2">
          <mxGeometry relative="1" as="geometry" />
        </mxCell>
        <mxCell id="x729ZxXL85oCNlhEFiC4-28" value="Deletar Cadastro" style="rounded=1;whiteSpace=wrap;html=1;" parent="1" vertex="1">
          <mxGeometry x="855" y="470" width="180" height="60" as="geometry" />
        </mxCell>
        <mxCell id="CERmEd8iWAx46a_hkjbx-1" style="edgeStyle=orthogonalEdgeStyle;rounded=0;orthogonalLoop=1;jettySize=auto;html=1;exitX=0.5;exitY=1;exitDx=0;exitDy=0;entryX=0.5;entryY=0;entryDx=0;entryDy=0;" edge="1" parent="1" source="x729ZxXL85oCNlhEFiC4-29" target="x729ZxXL85oCNlhEFiC4-44">
          <mxGeometry relative="1" as="geometry" />
        </mxCell>
        <mxCell id="x729ZxXL85oCNlhEFiC4-29" value="Atualizar cadastro" style="rounded=1;whiteSpace=wrap;html=1;" parent="1" vertex="1">
          <mxGeometry x="635" y="470" width="185" height="60" as="geometry" />
        </mxCell>
        <mxCell id="x729ZxXL85oCNlhEFiC4-32" style="edgeStyle=orthogonalEdgeStyle;rounded=0;orthogonalLoop=1;jettySize=auto;html=1;exitX=0.5;exitY=1;exitDx=0;exitDy=0;entryX=0.5;entryY=0;entryDx=0;entryDy=0;" parent="1" source="x729ZxXL85oCNlhEFiC4-30" target="x729ZxXL85oCNlhEFiC4-31" edge="1">
          <mxGeometry relative="1" as="geometry" />
        </mxCell>
        <mxCell id="x729ZxXL85oCNlhEFiC4-30" value="Adicione Nome, Estado e Tipo de contas" style="rounded=1;whiteSpace=wrap;html=1;" parent="1" vertex="1">
          <mxGeometry x="195" y="550" width="120" height="60" as="geometry" />
        </mxCell>
        <mxCell id="x729ZxXL85oCNlhEFiC4-36" style="edgeStyle=orthogonalEdgeStyle;rounded=0;orthogonalLoop=1;jettySize=auto;html=1;exitX=0;exitY=0.5;exitDx=0;exitDy=0;entryX=1;entryY=0.5;entryDx=0;entryDy=0;" parent="1" source="x729ZxXL85oCNlhEFiC4-31" target="x729ZxXL85oCNlhEFiC4-33" edge="1">
          <mxGeometry relative="1" as="geometry" />
        </mxCell>
        <mxCell id="x729ZxXL85oCNlhEFiC4-31" value="Cadastra no banco de dados" style="rounded=1;whiteSpace=wrap;html=1;" parent="1" vertex="1">
          <mxGeometry x="195" y="630" width="120" height="60" as="geometry" />
        </mxCell>
        <mxCell id="x729ZxXL85oCNlhEFiC4-33" value="SQL" style="shape=datastore;whiteSpace=wrap;html=1;" parent="1" vertex="1">
          <mxGeometry x="90" y="630" width="60" height="60" as="geometry" />
        </mxCell>
        <mxCell id="x729ZxXL85oCNlhEFiC4-38" value="Mostra quais cadastros estão no banco de dados" style="rounded=1;whiteSpace=wrap;html=1;" parent="1" vertex="1">
          <mxGeometry x="430" y="630" width="120" height="60" as="geometry" />
        </mxCell>
        <mxCell id="x729ZxXL85oCNlhEFiC4-42" style="edgeStyle=orthogonalEdgeStyle;rounded=0;orthogonalLoop=1;jettySize=auto;html=1;exitX=0.5;exitY=1;exitDx=0;exitDy=0;entryX=0.5;entryY=0;entryDx=0;entryDy=0;" parent="1" source="x729ZxXL85oCNlhEFiC4-41" target="x729ZxXL85oCNlhEFiC4-38" edge="1">
          <mxGeometry relative="1" as="geometry" />
        </mxCell>
        <mxCell id="x729ZxXL85oCNlhEFiC4-41" value="SQL" style="shape=datastore;whiteSpace=wrap;html=1;" parent="1" vertex="1">
          <mxGeometry x="460" y="550" width="60" height="60" as="geometry" />
        </mxCell>
        <mxCell id="x729ZxXL85oCNlhEFiC4-46" style="edgeStyle=orthogonalEdgeStyle;rounded=0;orthogonalLoop=1;jettySize=auto;html=1;exitX=0.5;exitY=1;exitDx=0;exitDy=0;entryX=0.5;entryY=0;entryDx=0;entryDy=0;" parent="1" source="x729ZxXL85oCNlhEFiC4-44" target="x729ZxXL85oCNlhEFiC4-45" edge="1">
          <mxGeometry relative="1" as="geometry" />
        </mxCell>
        <mxCell id="x729ZxXL85oCNlhEFiC4-44" value="Após selecionar o cadastro atualize as informações" style="rounded=1;whiteSpace=wrap;html=1;" parent="1" vertex="1">
          <mxGeometry x="670" y="550" width="120" height="60" as="geometry" />
        </mxCell>
        <mxCell id="CERmEd8iWAx46a_hkjbx-5" style="edgeStyle=orthogonalEdgeStyle;rounded=0;orthogonalLoop=1;jettySize=auto;html=1;exitX=0.5;exitY=1;exitDx=0;exitDy=0;entryX=0.5;entryY=0;entryDx=0;entryDy=0;" edge="1" parent="1" source="x729ZxXL85oCNlhEFiC4-45" target="CERmEd8iWAx46a_hkjbx-4">
          <mxGeometry relative="1" as="geometry" />
        </mxCell>
        <mxCell id="x729ZxXL85oCNlhEFiC4-45" value="Atualiza o SQL" style="shape=datastore;whiteSpace=wrap;html=1;" parent="1" vertex="1">
          <mxGeometry x="697.5" y="630" width="60" height="60" as="geometry" />
        </mxCell>
        <mxCell id="CERmEd8iWAx46a_hkjbx-7" style="edgeStyle=orthogonalEdgeStyle;rounded=0;orthogonalLoop=1;jettySize=auto;html=1;exitX=0.5;exitY=1;exitDx=0;exitDy=0;entryX=0.5;entryY=0;entryDx=0;entryDy=0;" edge="1" parent="1" source="CERmEd8iWAx46a_hkjbx-2" target="CERmEd8iWAx46a_hkjbx-6">
          <mxGeometry relative="1" as="geometry" />
        </mxCell>
        <mxCell id="CERmEd8iWAx46a_hkjbx-2" value="Deleta da base" style="shape=datastore;whiteSpace=wrap;html=1;" vertex="1" parent="1">
          <mxGeometry x="915" y="550" width="60" height="60" as="geometry" />
        </mxCell>
        <mxCell id="CERmEd8iWAx46a_hkjbx-4" value="Mostra os cadastros atualizados no banco de dados" style="rounded=1;whiteSpace=wrap;html=1;" vertex="1" parent="1">
          <mxGeometry x="670" y="710" width="120" height="60" as="geometry" />
        </mxCell>
        <mxCell id="CERmEd8iWAx46a_hkjbx-6" value="Retira os cadastros da interface" style="rounded=1;whiteSpace=wrap;html=1;" vertex="1" parent="1">
          <mxGeometry x="885" y="630" width="120" height="60" as="geometry" />
        </mxCell>
      </root>
    </mxGraphModel>
  </diagram>
</mxfile>
